<svg id="avatar-svg" transform="translate(-40, 0)" width="380" height="380" class="path1" viewBox="0 0 700 700" fill="none" stroke="black" strokewidth="0.8" strokelinecap="round" strokelinejoin="round" xmlns="http://www.w3.org/2000/svg">
        <g>
          <g>
            <g transform="translate(0, 550)">
    <!-- Generator: Sketch 62 (91390) - https://sketch.com -->
    <g id="body/mono/Gaming" stroke="none" stroke-width="1" fill="none" fill-rule="evenodd">
        <path d="M764.1471,391.462543 C764.1471,383.37091 752.947199,369.008112 752.9276,361.6786 C762.3436,359.9956 770.215913,347.238629 768.129913,339.249629 C764.454913,336.440629 754.8221,330.9106 750.8381,328.3286 C726.5651,329.0646 735.7901,295.2961 733.0431,278.1311 C730.2771,261.3371 728.2231,243.7771 724.1751,226.8881 C716.9851,213.3741 713.6111,198.2241 706.7391,184.7781 C703.6701,180.3221 698.7101,176.2371 697.2251,171.0601 C682.1911,154.6401 661.4951,144.7981 644.4631,130.8911 C651.0731,128.7751 650.6321,119.8601 650.2051,114.1351 C651.7431,106.6661 650.1001,97.2981 643.2881,93.0901 C640.9861,85.5901 630.9241,82.9721 625.0401,87.7501 C621.1751,70.4271 606.0541,59.9171 590.2141,53.4891 C590.2281,53.4381 590.2411,53.3881 590.2561,53.3371 C574.2811,46.9971 555.133455,43.8364284 539.194251,47.4003642 C547.607837,-46.3483854 475.804968,-49.7897206 439.364213,-41.9113106 C420.724908,-37.8815344 392.757573,-25.3356778 386.404204,-7.894738 C382.8173,1.95184405 372.524103,33.7078534 371.058709,43.8364284 C343.231709,27.9574284 310.9721,7.0191 286.8361,38.9871 C282.0031,44.5581 276.6551,48.6961 269.4231,50.6101 C246.8431,56.4691 216.8731,56.6651 204.0391,79.6831 C196.3681,93.9431 203.2671,103.3391 201.2061,117.6041 C99.5631,188.9831 14.6221,451.9361 33.6941,574.2691 C38.2821,618.0481 60.6821,695.5371 115.9711,685.8761 C144.171011,716.72019 617.495153,716.72019 666.302288,685.8761 C706.477288,696.3841 747.2991,680.1181 764.1471,641.6401 C785.5421,588.8781 762.8691,531.8971 758.8511,477.7721 C756.410921,464.107239 752.779269,453.260001 750.8381,439.270352 C750.029216,433.440874 752.819386,423.742633 750.8381,418.3691 C751.772933,414.871257 764.1471,399.554175 764.1471,391.462543 Z" id="ðŸŽ¨-Background" fill="#FFFFFF"/>
        <path d="M540.4106,17.1006 C541.5286,21.8876 540.5076,27.2846 540.6946,32.1976 C540.8726,36.8926 541.4266,41.5606 542.2426,46.1866 C550.8246,41.6726 560.9666,41.0926 570.7466,42.5456 C583.3976,44.4256 598.0366,48.5856 607.9516,57.0376 C610.3996,59.1256 612.4276,61.5976 614.1256,64.3226 C616.1636,67.5926 617.4646,71.2866 620.6956,73.6296 C625.6936,77.2546 631.8896,78.6576 636.6946,82.6746 C641.5936,86.7696 644.6346,92.8916 645.2776,99.2096 C645.6206,102.5726 645.0656,105.7166 644.4276,108.9966 C643.8556,111.9476 644.1366,113.1586 644.9136,115.9996 C645.5236,118.2296 644.3596,120.7606 642.4616,121.9906 C646.5306,124.7836 650.5446,127.6626 654.4886,130.6586 C677.4676,148.0986 696.8986,169.8386 710.3686,195.4186 L710.694145,196.05381 L711.07108,196.817567 C714.353726,203.561501 722.942493,223.277858 724.0096,227.7106 C724.7726,230.0256 725.5116,232.3496 726.1986,234.6876 C728.012683,240.884267 729.551156,247.157399 730.826341,253.482348 L731.1676,255.2086 C732.2026,260.5206 733.9836,266.8126 733.6966,272.4746 C736.6796,287.9326 739.3226,303.4556 741.5786,319.0436 C741.8736,321.0856 741.0606,322.7446 739.7986,323.8456 C742.8156,324.3306 745.8136,324.9266 748.7786,325.5276 L750.500991,325.889886 L751.362993,326.080354 C757.53834,327.47311 763.632967,329.501273 767.6776,334.6876 C772.0386,340.2986 772.1276,347.5086 767.7476,353.1586 C764.0286,357.9586 758.5976,360.2386 752.9276,361.6786 C751.8086,361.9586 750.6776,362.2186 749.5476,362.4476 C748.7886,362.6076 748.2886,361.5686 749.0076,361.1686 L750.210872,360.503701 L751.852477,359.604013 C756.126578,357.247886 760.562626,354.588863 762.9276,350.3386 C766.1386,344.5686 763.5976,339.2276 758.0876,336.2986 C753.475007,333.843044 747.769131,333.214265 742.646937,332.375436 L740.531646,332.025987 C735.176557,331.171229 729.713817,330.615861 724.3086,331.2276 C719.5786,331.7676 714.7886,333.3786 710.9676,336.2676 L710.613816,336.545699 L710.248212,336.852994 C706.897652,339.756458 702.079501,346.278691 708.3986,348.1586 C713.2286,349.586517 719.113845,349.231814 724.190206,349.508704 L724.8476,349.5486 C729.0976,349.8386 733.5386,349.8386 737.8376,350.3486 C739.3776,350.5276 740.8986,350.7776 742.3886,351.1286 C746.6586,352.1386 745.1886,357.8186 741.4276,358.2186 C740.5076,358.3186 739.5686,358.3676 738.6276,358.3886 C736.1676,360.2386 732.7676,361.0786 729.8586,362.2276 C727.0786,363.3286 724.2886,364.4186 721.4786,365.4886 C723.8986,365.5986 726.3186,365.7986 728.7286,366.0986 C729.5076,366.1876 729.5176,367.2386 728.7286,367.3186 C722.9276,367.9086 717.1276,368.5486 711.3476,369.3576 C702.3986,370.5986 693.5076,372.2586 684.8186,374.7876 C678.467171,376.644743 672.193345,378.855406 666.108412,381.435603 L664.2676,382.2276 L663.508083,382.559162 C657.985413,384.952816 650.841,387.753889 647.6676,393.0276 C646.0076,395.7776 645.2786,400.0276 647.6186,402.6586 C650.120968,405.492021 655.363233,405.168399 658.868301,405.306333 L659.1486,405.3186 C666.5686,405.6786 673.9976,405.7276 681.4276,405.4686 C696.9976,404.9186 712.5786,403.2186 727.8686,400.2276 C730.6886,399.6786 731.9086,403.9086 729.0686,404.5686 C711.032906,408.758878 692.799661,411.057778 674.29443,411.164801 L672.2676,411.1686 C665.059162,412.546725 657.989592,414.601608 650.979787,416.921261 L649.5786,417.3886 C645.4386,418.7876 638.3686,420.1786 635.9276,424.2876 C634.3086,427.0176 634.8776,428.8886 636.4786,430.1586 C639.2976,432.3886 645.2976,432.8076 648.2176,432.9186 C659.9176,433.3576 671.6276,433.4376 683.3376,433.1876 C689.1886,433.0576 695.0386,432.8486 700.8886,432.5486 C706.6086,432.2486 712.7176,431.3986 718.4176,431.9476 C720.8686,432.1876 721.6886,435.7876 719.0286,436.4586 C711.99897,438.239119 704.1153,438.08344 696.852747,438.310563 L696.0176,438.3386 C688.2176,438.6176 680.4086,438.7386 672.6086,438.7186 C665.913457,438.692029 659.219784,438.556722 652.531988,438.310792 L646.61916,438.076352 L645.571977,438.026249 C642.420888,437.857402 639.2022,437.49432 636.4086,436.1976 C633.8286,440.5176 635.7576,446.3076 639.0876,449.7276 C642.2576,452.9886 646.8286,454.5886 651.2076,455.5886 C651.6186,455.6786 652.0286,455.7676 652.4386,455.8486 C662.0586,457.8076 671.8586,457.6386 680.8586,462.0576 C688.4276,465.7776 695.3586,471.9776 703.8376,473.4476 C711.4176,474.7676 716.9276,471.4286 720.9676,465.2486 C721.1886,464.9086 721.4086,464.5686 721.6186,464.2276 C724.7976,459.1076 727.0876,453.4686 730.4386,448.4476 C732.1486,445.8886 734.0786,443.4286 736.4386,441.4286 C737.4976,440.5176 744.9176,436.5786 746.0786,435.3986 C751.0686,430.2776 746.6486,419.5086 747.9486,413.0886 C749.4676,405.6176 756.0386,402.9886 759.9786,397.1976 C767.4676,386.1786 746.9276,375.8576 753.0686,363.8076 C753.1486,363.6586 753.2476,363.5486 753.3776,363.4776 C753.9176,363.1876 754.7786,363.5486 754.7286,364.2586 C754.0476,373.2386 762.6086,379.4186 765.6986,387.1976 C769.2176,396.0486 763.5976,401.4086 757.8586,407.3186 C750.4976,414.9086 755.6776,423.4086 754.0386,432.5486 C753.8246,433.7466 753.4806,434.8026 753.0336,435.7476 C754.2916,436.5276 755.2616,437.8196 755.4746,439.6236 C757.9986,461.0236 760.7116,482.3576 765.1416,503.4616 L766.089465,507.945345 L767.358506,513.926865 C770.515989,528.887436 773.46333,543.908276 774.0236,559.2026 C775.7826,572.1096 776.4806,585.1246 775.4386,598.1176 C772.2786,637.6686 750.1676,679.0486 709.9976,691.1876 C700.6986,693.9986 690.8376,694.7276 681.2976,692.7586 C678.0286,692.0886 673.4486,690.6076 669.3376,688.3676 C669.5826,691.0036 669.7766,693.6396 669.8576,696.2696 C671.212244,697.778304 671.824852,700.05622 671.053337,702.004858 C667.777549,700.92734 664.799956,699.220672 662.118728,696.885598 L661.6746,696.4906 C660.084991,690.584122 659.619974,684.1216 659.388995,677.899205 L659.3286,676.1286 C659.2676,674.4086 659.2286,672.7186 659.1676,671.0686 C658.8286,660.7986 659.0686,650.5086 659.5976,640.2486 L659.987635,632.695668 C660.881037,615.079006 661.607725,597.503975 661.1186,579.8386 C660.5586,559.5086 658.8186,539.2676 656.6386,519.0486 C655.5076,508.6176 654.2286,498.2086 652.9176,487.7986 C651.8686,479.4186 650.1086,470.3986 650.0786,461.7586 C643.3476,460.3186 636.7386,457.5576 632.5976,451.9086 C628.2076,445.9186 627.5586,438.2586 631.4576,432.1176 C627.6886,426.9586 630.7786,422.0986 635.4386,418.8186 C628.2786,414.8076 624.2886,403.8676 623.2286,396.2586 C622.5076,391.0376 622.2786,383.2276 624.5076,377.3576 C621.3086,377.4686 618.1086,377.7986 614.9086,378.3486 C611.2076,378.9986 607.5786,379.9476 603.9976,381.1286 L602.1849,381.728268 C601.270171,382.0346 600.240457,382.395743 599.2176,382.8186 C605.6886,393.5176 597.3776,403.2186 586.7176,405.9886 C584.6886,406.5176 582.6186,406.8886 580.5286,407.1876 C575.8186,407.8386 571.0076,408.0376 566.3376,408.4686 C557.3986,409.2876 548.4086,410.4586 539.4386,410.8386 C537.4676,410.9286 536.1986,410.0086 535.5976,408.7276 C535.5786,408.7086 535.5686,408.6976 535.5686,408.6786 C535.3586,408.3386 535.2176,407.9776 535.1676,407.5986 C535.1986,407.6286 535.2386,407.6486 535.2676,407.6686 C534.8376,405.2676 536.2786,402.3486 539.4386,401.9986 C552.3886,400.5376 565.5176,400.4686 578.5076,399.3986 L579.340103,399.329465 C583.417531,398.977558 588.220245,398.330535 591.4486,395.7486 C594.4486,393.3486 594.7176,390.2276 593.5176,387.4086 C593.4976,387.4776 593.4786,387.5576 593.4676,387.6286 C593.3776,388.1876 592.6086,388.1686 592.3586,387.7776 C591.6086,386.6386 591.4176,385.5176 591.6086,384.4376 C590.7076,383.3986 589.6186,382.4776 588.4386,381.7676 C583.2076,378.5886 576.3286,377.7186 570.3776,376.7776 C563.8686,375.7486 557.3086,375.2776 550.7386,374.9686 C537.8086,374.3576 524.8376,375.4086 512.1186,377.7276 C511.5876,377.8186 511.3686,377.0786 511.8886,376.9086 C516.8476,375.2676 521.9176,373.8886 527.0476,372.7986 C526.9276,372.7776 526.8086,372.7586 526.6886,372.7276 C526.2386,372.6176 525.9176,372.0686 526.0686,371.6286 C526.0876,371.5576 526.1186,371.4886 526.1486,371.4286 C523.9676,370.4286 523.0586,367.0686 525.6986,365.7086 C533.9276,361.4586 543.5876,359.5376 552.6186,357.7876 C561.2886,356.1176 570.0476,354.9476 578.8186,353.9086 C593.6486,352.1686 609.8186,352.2086 624.0876,347.5276 L624.674373,347.330832 C630.485407,345.326533 637.42237,341.266141 637.8286,334.4086 C638.4276,324.0376 623.0176,326.7386 616.5976,326.9886 C599.0286,327.6586 581.4786,328.8786 563.9886,330.7586 C560.4176,331.1386 556.8476,331.5276 553.2786,331.9286 C547.8086,332.5376 542.3286,333.1786 536.8686,333.8576 C533.8186,334.2386 530.6986,334.7386 527.5586,335.2186 C526.5786,335.4586 525.6186,335.6286 524.6586,335.7186 C524.5876,335.7276 524.5286,335.7086 524.4786,335.6786 C519.9086,336.3186 515.3186,336.8076 510.8586,336.6686 C510.3476,336.6586 510.0286,335.8576 510.5686,335.6176 C516.3286,333.1786 522.7386,331.7386 529.1676,330.6076 C533.1486,327.6386 537.9576,325.2586 541.9086,322.9586 C547.3286,319.7986 553.5386,315.1486 559.6886,313.2586 C562.4576,311.0786 565.5976,309.3286 568.4886,308.1386 C567.6586,306.8486 567.3586,305.0576 567.5076,303.5486 C568.0586,298.1386 572.3886,295.1176 577.3886,294.0576 C578.9386,293.7386 580.7286,293.4986 582.6386,293.4086 C582.6776,292.3986 583.1276,291.4086 584.1276,290.6686 L584.422861,290.444639 L584.632443,290.277516 C587.988965,287.55216 594.651782,279.878802 586.6276,279.3186 C582.3686,279.0176 578.7676,282.1386 575.3776,284.2486 C568.3376,288.6386 561.5286,288.8576 553.4886,287.7676 L549.874321,287.248987 L549.273404,287.167967 C543.460564,286.40532 537.563877,286.30015 534.3186,292.2276 C530.8376,298.5686 529.6186,304.3486 522.5976,307.8386 C515.8886,311.1686 508.4386,311.8286 502.2786,316.4086 C495.6776,321.3076 490.7176,328.1876 485.3186,334.2876 C473.4086,347.7276 459.7786,359.5986 445.7386,370.7586 L443.241053,372.737724 C430.311171,382.955854 416.964661,393.016479 402.4886,400.8886 C402.3886,400.9376 402.2876,400.9586 402.1986,400.9586 C401.8086,400.9186 401.5176,400.4186 401.8686,400.0786 C418.7786,383.6486 438.5586,370.3286 455.9276,354.3386 C463.6276,347.2486 470.9576,339.7876 478.0076,332.0486 C484.1676,325.2586 489.6276,317.6286 496.8086,311.8486 C500.2976,309.0376 504.0686,306.8886 508.2876,305.3886 C512.2286,303.9776 516.6486,303.2776 520.2786,301.1176 C527.3886,296.8986 526.6986,286.8986 533.8086,282.3576 C539.904754,278.463369 547.331344,279.886261 554.090796,280.810462 L554.8986,280.9186 C559.2786,281.4986 563.8086,281.9886 567.9886,280.2586 C572.1276,278.5486 575.4576,275.3486 579.6276,273.6486 C585.4386,271.2586 593.6776,271.8286 596.6586,278.2186 C599.5076,284.3186 595.6186,289.8386 591.0786,293.8886 C597.2676,295.0086 602.6986,297.9986 603.1586,304.0986 C607.6986,303.9476 612.2286,303.7876 616.7676,303.6286 C632.5786,303.0786 648.4676,302.0176 664.2886,302.2986 C663.9276,300.6876 663.7676,299.0276 663.7476,297.3386 C663.7386,296.3986 663.7786,295.4586 663.8476,294.4986 C663.9676,292.8576 665.0476,291.8676 666.6486,291.6976 L670.221802,291.316394 L671.417572,291.197901 C678.112026,290.56476 685.597798,290.431987 690.6986,294.8576 C693.4386,297.2486 695.6486,302.7486 694.3086,306.4186 C697.4276,307.4886 700.3986,308.8576 703.1086,310.5886 C708.4786,308.7876 714.1186,308.9886 719.5176,310.8676 L720.158982,311.0968 C723.997322,312.505938 729.437789,315.175168 731.5236,318.9826 C726.4606,284.6646 719.6376,250.6396 711.0606,217.0256 C705.5856,203.6016 698.6676,190.7706 690.2786,178.9286 C669.1486,149.0886 638.7076,128.5686 611.3686,104.9786 C608.956225,107.63335 606.357803,110.159475 603.927723,112.590471 L602.8976,113.6266 C597.9476,118.6396 592.7846,123.4366 587.5076,128.1016 C576.4786,137.8516 564.8696,146.8506 553.3436,155.9936 C530.1086,174.4266 509.1016,193.9996 491.6236,218.0646 C491.3096,218.4986 490.4386,218.2456 490.6816,217.6686 C502.6696,189.1716 527.5216,167.5066 550.0976,147.4036 C561.9696,136.8326 574.1196,126.5166 585.5346,115.4466 C590.856138,110.285677 596.011523,104.946671 600.87491,99.350143 L602.0846,97.9456 C605.2646,94.2236 612.7106,82.8596 617.6316,91.0586 C618.6626,92.7736 618.6176,94.9676 617.6316,96.6846 C616.2336,99.1246 614.4586,101.4516 612.5176,103.6866 C619.4176,107.4396 626.1756,111.4026 632.7856,115.5976 C632.4056,113.5766 632.5006,111.3426 632.8536,109.1076 L632.96933,108.397659 L633.450746,105.625719 C634.141316,101.539447 634.496383,97.7404261 631.9036,93.7546 C628.6616,88.7686 622.5486,87.2136 617.6786,84.3326 C612.0686,81.0126 609.1386,76.5706 606.1346,70.9326 C600.381681,60.1396405 587.384856,55.8117912 576.214141,52.3395798 L574.8086,51.9036 C564.4866,48.7046 553.3206,46.9926 543.0006,50.0666 C543.9686,54.5726 545.2356,59.0146 546.8186,63.3416 C548.5036,67.9476 552.3526,73.0686 551.9586,78.0436 C551.6866,81.4866 547.5566,85.1666 544.1296,82.5356 C539.2756,78.8116 538.3056,72.7466 537.0046,66.9686 C535.7466,61.3806 534.9436,55.6566 534.6016,49.9396 C534.272537,44.4299125 534.529705,38.9237406 535.209133,33.4515714 L535.730213,29.4327802 L535.856722,28.4994538 C536.42388,24.4370217 537.267328,20.1731937 539.5526,16.9886 C539.7726,16.6826 540.3106,16.6756 540.4106,17.1006 Z M399.5816,-5.7424 C399.6546,-5.4174 399.7056,-5.0964 399.7516,-4.7754 C400.0856,-3.4054 400.2106,-2.0884 400.1696,-0.7654 C400.1896,-0.2884 400.1546,0.1896 400.0656,0.6626 C399.8866,2.2196 399.5116,3.8176 399.0046,5.5646 C397.9256,9.2816 396.6896,12.9536 395.3086,16.5706 C392.5786,23.7236 389.3556,30.5486 385.3716,37.0906 C378.1746,48.9076 369.0256,58.7166 358.2396,67.1956 C360.2866,68.8846 362.2876,70.6416 364.2926,72.3666 C373.9836,80.7066 383.4126,89.4246 392.5456,98.3726 C408.7646,114.2656 424.6576,130.4536 440.1776,147.0296 C447.8326,155.2046 455.3456,163.4866 462.8176,171.8246 L463.062553,172.105151 L463.3274,172.420685 C465.980581,175.629357 471.284503,183.281826 475.2416,182.0526 C477.2396,181.4306 479.3436,178.4496 480.7056,177.0276 L483.21435,174.4116 C484.04835,173.5371 484.8771,172.6576 485.6916,171.7656 C500.2876,155.7736 514.0986,139.1676 527.0666,121.8106 C533.3946,113.3416 539.5116,104.7136 545.4066,95.9356 C548.4366,91.4226 551.4106,86.8696 554.3246,82.2786 C557.1426,77.8386 559.4216,73.0666 563.5746,69.7526 C566.6226,67.3206 570.8456,69.5506 570.0776,73.5376 C568.8676,79.8166 564.5216,85.1266 561.0996,90.4336 C557.6626,95.7666 554.1446,101.0476 550.5476,106.2726 C543.6246,116.3326 536.4016,126.1806 528.9206,135.8306 C522.478267,144.1411 515.756961,152.238169 508.853735,160.171105 L506.9666,162.3306 C499.5416,170.7956 492.2536,179.7816 484.0486,187.5076 C476.7016,194.4266 468.6776,192.4106 461.9846,185.6866 C453.5196,177.1856 445.6606,167.9916 437.5156,159.1806 C421.2396,141.5726 404.7936,124.0986 388.1776,106.8106 L382.715452,101.120798 C376.346575,94.472958 370.003711,87.7833778 363.8266,80.9716 L363.029477,80.0834672 C355.98503,72.158963 348.821673,62.2315636 338.8066,58.2026 C338.0826,57.9116 338.3486,56.8836 339.1306,57.0276 C345.5416,58.2126 350.8936,61.4426 355.8736,65.3016 C360.3496,57.8946 364.3436,50.0866 367.8256,42.1006 L365.591568,41.1305752 C349.607762,34.2239734 331.592197,27.2600776 314.4316,28.3796 C307.5156,28.8296 300.1366,31.4496 295.3616,36.6416 C291.0376,41.3446 288.8786,47.6866 284.9106,52.6956 C280.3656,58.4326 274.4376,61.0146 267.1626,61.2476 L263.625088,61.354862 C259.556341,61.486921 255.654489,61.7003778 251.5276,62.5956 C240.3456,65.0196 228.5566,68.9526 219.1786,75.6696 C215.7766,78.1056 212.2646,81.4556 210.6196,85.1466 C208.9886,88.8036 208.5196,93.0826 208.3606,97.0296 C208.2836,98.9536 208.8606,101.4946 208.3786,103.3356 C208.4336,103.1246 208.4586,103.2366 208.4656,103.4566 C209.9646,104.6386 210.9856,106.6036 211.0966,108.5616 C220.4446,103.6896 230.1216,99.4196 239.9866,95.5706 C250.9706,91.2856 262.2956,87.8516 273.6226,84.5996 C284.7086,81.4186 296.3126,80.1026 307.6136,77.8346 C309.0526,77.5456 309.5526,79.4886 308.2116,80.0046 C296.3336,84.5666 284.8406,89.9746 272.8636,94.2666 C260.8926,98.5576 249.0106,103.2016 237.3866,108.3636 C214.9186,118.3446 193.2156,131.0446 175.5146,148.2756 C158.2266,165.1056 144.8916,185.5506 132.4896,206.1066 C119.9996,226.8076 108.8526,248.2626 98.9176,270.3016 C79.2636,313.9006 64.5256,359.7416 54.8226,406.5656 C45.3796,452.1316 40.1036,499.3246 41.8606,545.8976 C42.6946,568.0176 45.3966,590.1546 51.6806,611.4286 C54.6826,621.5926 58.4406,631.5236 63.1886,641.0046 C68.1956,651.0006 74.9416,659.9046 79.5136,670.0706 C79.8896,670.9066 80.0336,671.7096 80.0126,672.4556 C99.5126,689.3506 130.0346,677.9656 151.1386,667.8786 C199.6986,644.6586 247.3586,619.2486 292.6586,590.0886 C337.3686,561.3076 379.7386,529.1876 421.1086,495.8486 C417.9086,492.5486 415.0876,488.8486 412.6086,485.4986 C407.4886,478.5786 403.6386,470.7386 400.9886,462.5576 C397.8886,452.9776 396.9276,442.7276 397.8086,432.7186 L398.058495,429.88769 C398.901327,420.435699 399.874964,410.843964 401.9486,401.6076 C401.9676,401.4886 402.0586,401.4376 402.1586,401.4376 C402.2576,401.4376 402.3586,401.4986 402.3986,401.6076 C407.9886,419.4986 408.4386,438.7276 414.7176,456.3886 C417.2476,463.4886 421.1676,470.3486 425.8686,476.2386 C427.8986,478.7876 430.2786,480.9986 432.7076,483.1586 C432.8686,482.0576 433.0876,480.9686 433.4176,479.8986 L433.679466,479.051409 C434.004884,478.023254 434.4076,476.879489 434.9676,475.8676 C434.1776,475.6386 433.4086,475.3886 432.6486,475.1076 C432.0476,474.8886 431.9176,473.9186 432.6486,473.7586 C434.6386,473.2986 436.6886,473.0686 438.7786,472.9686 C439.1086,472.9186 439.4276,472.9086 439.7476,472.9286 C443.6586,472.8076 447.6386,473.0886 451.4086,473.1486 C457.9386,473.2486 464.4486,473.3676 470.9676,473.6586 C483.4486,474.1976 497.5376,476.5886 509.8186,473.6876 C520.9786,471.0486 531.9786,463.6076 540.9276,456.6076 C548.7476,450.4886 554.7786,443.2186 561.2676,435.9686 C560.8016,436.041933 560.339156,436.110822 559.878489,436.17497 L555.693889,436.748403 C550.411632,437.453611 544.1411,438.006806 539.9486,435.4686 C538.3476,434.4986 538.8086,432.2986 540.4386,431.6976 C544.7176,430.1286 550.0286,431.4286 554.5876,431.2086 C558.1676,431.0376 561.7886,430.6586 565.3186,429.9186 C566.4786,429.6786 567.6276,429.3986 568.7676,429.0686 C577.1276,426.6586 586.9486,418.1786 580.3086,408.9186 C580.0586,408.5686 580.3376,408.2486 580.6776,408.1876 C580.8286,408.1586 580.9886,408.1876 581.1186,408.2986 C588.6776,414.5576 584.7476,425.7776 577.5976,430.5886 C575.1386,432.2486 572.3586,433.4086 569.4786,434.2586 C570.0286,435.2676 570.1276,436.5086 569.4676,437.6876 C563.8686,447.6686 554.3886,456.4376 545.5076,463.4886 C536.3886,470.7276 525.8686,477.5576 514.5586,480.7586 C501.4976,484.4376 487.1486,481.6686 473.8986,480.4986 C466.7176,479.8676 459.5586,479.1176 452.3886,478.2876 C450.4676,478.0686 448.4786,477.8986 446.4576,477.7086 C448.3586,480.2086 449.8686,483.0886 450.8586,484.8186 C454.0786,490.4376 451.1086,497.8386 444.8686,499.5576 C444.2176,499.7386 443.5476,499.8386 442.8886,499.8576 C441.2076,503.2276 437.2076,505.7086 433.5076,504.4376 C431.8986,503.8886 430.3476,503.1386 428.8586,502.2386 C405.5876,522.6786 381.0876,541.8576 355.8886,559.8386 C309.1586,593.1786 260.1776,623.6286 209.3886,650.3986 C197.9487,656.4286 186.42132,662.2966 174.796254,667.936261 L164.790369,672.759237 C153.715202,678.089241 142.380475,683.3901 130.6186,686.6976 C128.3256,687.3426 125.9246,687.8636 123.4646,688.2626 C123.432748,688.482824 123.424718,688.693661 123.439121,688.895482 C121.227566,689.19029 119.29776,689.23522 117.649876,689.03032 L117.2746,688.9786 C102.8576,689.9866 87.4366,686.4666 78.1616,675.9366 C76.6156,677.0216 74.3616,677.1416 72.3726,675.5806 C62.3696,667.7316 56.4066,655.7816 51.1736,644.3726 C45.8676,632.7996 41.7086,620.7386 38.6526,608.3826 C32.5486,583.7046 30.1276,558.2486 30.0000146,532.8636 C29.5386,435.0446 54.0366,336.3666 96.5886,248.5476 C107.3806,226.2746 119.2766,204.4176 132.4826,183.4806 C145.6526,162.6006 160.9456,143.1956 180.5306,127.9676 C186.1626,123.5896 192.0216,119.5866 198.0646,115.8986 C194.0086,113.8886 192.3976,108.7756 192.1136,104.2336 C191.4836,94.1466 192.6856,82.5256 198.5916,74.0146 C206.8766,62.0746 221.7076,54.7126 235.4596,51.1326 C242.6386,49.2646 250.0646,48.1756 257.4696,47.8076 C261.2876,47.6166 265.2546,48.2446 269.0266,47.8326 C272.3546,47.4706 274.4126,45.4846 276.3266,42.8736 C281.2296,36.1806 284.4216,29.1606 291.4546,24.2546 C298.6706,19.2216 308.0216,17.2956 316.7146,17.8176 C326.8416,18.4266 336.0806,22.4166 344.9996,27.0016 C353.0496,31.1396 360.8636,35.7236 368.4786,40.6136 C369.8746,37.3426 371.1896,34.0466 372.4126,30.7396 C374.7846,24.3276 376.8476,17.7116 378.5216,11.0836 C380.2186,4.3626 379.9706,-4.5134 385.0966,-9.5674 C389.5536,-13.9604 398.1366,-12.2354 399.5816,-5.7424 Z M745.061073,442.721873 L745.0246,442.7296 C734.6566,448.8736 729.6986,464.2276 724.8186,470.9376 C725.2176,473.1876 725.4976,475.4776 726.0476,477.6076 C727.3086,482.4986 728.9576,487.3486 730.8686,492.0086 C734.2286,500.2386 738.4386,508.0786 742.3286,516.0576 C745.4586,522.4746 748.5256,529.0096 750.9116,535.7646 C750.6526,536.0236 750.4136,536.3306 750.2106,536.7116 C747.6226,541.5586 745.5966,540.6056 740.8216,539.5476 L740.8186,539.5376 C738.0876,531.1786 734.1486,523.3286 730.6086,515.3076 L729.747645,513.349296 L728.896262,511.389436 C725.938429,504.524984 723.23924,497.597 721.6676,490.2386 C720.6676,485.5486 720.2576,480.7276 720.1986,475.9376 C717.6086,478.0686 714.4976,479.5986 710.5786,480.1876 C702.1911,481.454564 694.594576,476.201766 687.760606,471.987399 L686.220345,471.044543 C681.942058,468.441649 677.700183,466.03685 672.7676,464.8076 C667.1676,463.4086 661.3776,463.4086 655.6886,462.6976 C655.0076,462.6076 654.3186,462.5176 653.6276,462.4086 C655.8476,469.7586 656.8776,477.7386 658.1986,485.0986 C660.0386,495.4186 661.5386,505.8286 662.9786,516.2086 C665.7786,536.3286 667.7286,556.6076 668.7176,576.8986 C669.675933,596.544433 669.193293,616.116794 668.482506,635.756505 L668.127969,645.334094 C667.843813,653.132091 667.609908,660.9386 667.7476,668.7386 C668.1276,668.7676 668.5076,668.8286 668.8886,668.9186 C672.8286,669.8386 675.5176,673.8576 679.1186,675.6486 C686.7176,679.4286 695.8986,679.3786 703.9886,677.4686 C722.3886,673.1076 737.6886,660.2676 747.7676,644.5786 C759.8686,625.7586 764.3086,603.6076 764.1676,581.4476 C764.001142,556.508225 759.962222,532.662804 754.339618,508.58576 L753.9786,507.0486 C749.2464,486.99021 746.2823,442.912509 745.061073,442.721873 Z M229.82,392.4012 C229.925,399.1092 227.197,406.2842 225.698,412.8022 C224.084,419.8252 222.474,426.8482 220.842,433.8682 L219.374128,440.157419 C218.152,445.398629 216.947,450.643629 215.867,455.9172 C214.979,460.2522 214.607,465.9652 213.152,470.7442 C230.459,463.7442 247.793,456.8152 265.098,449.8382 C286.418,441.2392 307.838,432.8782 329.208,424.4182 C350.498,415.9982 371.668,406.4182 393.389,399.2182 C398.559,397.4982 402.059,405.7482 397.108,408.0372 C375.048,418.2682 351.708,426.2782 329.108,435.2392 L296.416409,448.217294 C266.447422,460.108431 236.458,471.942133 206.318,483.3682 C185.788,491.1492 165.338,499.1592 144.678,506.5482 C134.828,510.0692 124.889,513.3992 115.088,517.0482 C106.878,520.1082 97.998,524.6492 94.958,533.4682 C94.798,533.9282 94.168,533.7392 94.238,533.2682 C95.468,524.7282 101.809,519.3882 108.958,515.3482 C118.446696,509.972548 128.868624,506.06079 138.884799,501.749723 L140.248,501.1592 C160.701,492.2392 181.319,483.6802 201.998,475.2642 C201.793,474.7642 201.672,474.2282 201.663,473.6682 L201.604,473.6842 C201.228,469.8612 202.981,466.4522 204.242,462.8962 L207.859,452.6922 C210.269,445.8972 212.431,439.0182 214.658,432.1622 C216.987,424.9962 219.338,417.8372 221.685,410.6772 C223.673,404.6122 225.009,397.3832 228.41,391.9622 C228.82,391.3092 229.95,391.6762 229.82,392.4012 Z M628.1086,377.3186 L627.850877,378.62105 C627.550328,380.144044 627.2686,381.6786 627.1986,383.2186 C626.9976,387.2486 627.4576,391.2776 628.5286,395.1686 C629.5786,399.0176 631.0476,402.7386 633.1386,406.1486 C635.1186,409.3576 637.9886,411.8786 639.8186,415.1686 C640.0076,415.5176 640.1276,415.8676 640.1776,416.2086 C640.8776,415.9186 641.5686,415.6586 642.2386,415.4476 C647.8186,413.6786 653.5176,412.1976 659.2976,411.0886 L658.380916,411.026517 L657.789054,410.97936 C648.131653,410.162139 639.019907,407.002667 640.9886,395.7276 C642.1022,389.35416 647.104952,385.080125 652.466759,382.050839 L653.1386,381.6786 C653.4276,381.5176 653.7286,381.3576 654.0176,381.2186 C649.1676,380.3986 645.6486,379.3886 639.6986,378.3886 C635.8376,377.7386 631.9676,377.3786 628.1086,377.3186 Z M186.918,238.4361 C196.414,257.6221 203.558,278.0221 208.948,298.7191 C211.550133,308.714167 213.758524,318.807669 215.534148,328.98172 L216.117334,332.379003 L216.448779,334.222859 C218.107459,343.29146 220.214163,353.11561 217.778,361.9641 C216.983,364.8551 212.183,365.9991 210.839,362.8721 C206.785,353.4321 207.355,342.5811 206.18,332.4791 C204.945,321.8791 203.26,311.3291 201.16,300.8661 C197.126393,280.761707 191.464624,261.127817 185.153821,241.641639 L184.45,239.4771 C183.914,238.0341 186.248,237.0831 186.918,238.4361 Z M551.9176,324.2676 C549.0876,325.5986 546.2576,326.8186 543.7576,328.0376 C543.5686,328.1386 543.3686,328.2276 543.1676,328.3286 C545.9976,327.8486 548.8376,327.3986 551.6776,326.9776 C551.6486,326.0576 551.7386,325.1486 551.9176,324.2676 Z M662.6516,314.6586 C662.226457,314.7966 661.850539,315.019824 661.523845,315.325755 L661.3646,315.4856 C660.9746,315.8486 660.6986,316.2776 660.5376,316.7726 C660.2876,317.2506 660.1716,317.7646 660.1926,318.3146 L660.3356,319.3776 C660.5256,320.0556 660.8686,320.6426 661.3646,321.1426 L662.1736,321.7676 C662.7196,322.08435 663.303116,322.263287 663.924147,322.305082 L664.1926,322.3146 L665.002422,322.314959 C665.465437,322.299233 665.900743,322.184743 666.3096,321.9696 C666.734743,321.8316 667.110661,321.60911 667.437355,321.30276 L667.5966,321.1426 C667.9876,320.7796 668.2626,320.3506 668.4236,319.8556 C668.638743,319.446743 668.753233,319.010702 668.768959,318.548107 L668.7686,318.3146 L668.6256,317.2506 C668.45935,316.65735 668.175959,316.133006 667.775428,315.676899 L667.5966,315.4856 L666.7876,314.8596 C666.2416,314.543725 665.658084,314.364897 665.037053,314.323786 L664.7686,314.3146 L664.1926,314.3146 C663.6416,314.2936 663.1276,314.4086 662.6516,314.6586 Z M636.6326,313.3056 C634.5076,313.6956 633.3026,316.2716 633.8396,318.2246 C634.433794,320.387503 636.488965,321.348846 638.5532,321.053342 L638.7596,321.0196 C641.1776,320.5746 643.5466,320.7466 645.8496,321.5956 C647.8756,322.3436 650.2326,320.7586 650.7696,318.8016 C651.3836,316.5676 650.0106,314.6316 647.9756,313.8816 C644.3256,312.5336 640.4106,312.6096 636.6326,313.3056 Z M215.3215,171.2508 C220.16021,178.341445 223.181125,187.767782 226.161529,195.871022 L226.4595,196.6768 C229.6275,205.1928 232.6835,213.7758 235.5335,222.4048 C241.2225,239.6298 248.6365,257.6548 250.0065,275.8508 C250.2595,279.2088 245.1205,280.5548 243.6305,277.5788 C239.3495,269.0218 237.0475,260.1018 234.5145,250.9278 C232.0985,242.1788 229.5815,233.4598 227.0635,224.7398 C224.5465,216.0248 222.1115,207.2838 219.6325,198.5578 C217.2215,190.0688 213.8645,180.6298 213.3125,171.7948 C213.2405,170.6468 214.7655,170.4348 215.3215,171.2508 Z M324.5308,114.1655 C330.9898,118.6485 336.2798,125.2055 341.7458,130.8135 C347.2908,136.5035 352.7618,142.2465 358.1818,148.0565 C367.2388,157.7665 376.1318,167.6355 385.3168,177.2275 C403.6208,196.3425 424.3278,213.9325 449.5898,222.9165 C455.7028,225.0905 453.0248,234.9005 446.8978,232.6805 C421.0588,223.3125 399.6538,205.9915 380.7728,186.3965 C370.9938,176.2485 362.0208,165.4045 353.2718,154.3675 C349.177633,149.2025 345.114022,144.021528 341.108166,138.79044 L338.7118,135.6455 C333.6748,128.9995 327.5118,122.3755 323.8258,114.8715 C323.6188,114.4495 324.0728,113.8485 324.5308,114.1655 Z" id="ðŸ–-Ink" fill="#000000"/>
    </g>
</g><g transform="translate(200, 50)">
    <!-- Generator: Sketch 62 (91390) - https://sketch.com -->
    <title>head/mono/Cornrows</title>
    <desc>Created with Sketch.</desc>
    <g id="head/mono/Cornrows" stroke="none" stroke-width="1" fill="none" fill-rule="evenodd">
        <path d="M430.5477,316.8603 C436.7417,272.1573 423.5137,229.0163 406.3767,188.1603 C405.4357,185.6723 403.9427,183.5173 402.0237,181.9853 C353.6607,84.5083 282.5977,75.6813 183.4587,82.3943 C180.5297,82.3293 180.3557,82.3813 178.1317,81.3863 C177.7637,41.7883 132.5387,20.8133 98.1237,33.8783 C-54.5083,104.8073 -6.5143,304.4923 23.8587,434.8573 C34.6947,485.3223 45.5337,535.7843 56.3717,586.2473 C56.7357,587.9353 57.5027,589.3943 58.5227,590.6243 C56.9487,591.2213 55.3737,591.7813 53.8287,592.3073 C50.3027,593.5073 51.7037,598.7643 55.3737,597.9123 C58.9707,597.0773 62.4367,595.9583 65.8657,594.7393 C71.2117,595.8993 75.6937,592.4063 79.8907,589.6203 C129.0367,570.1863 149.6687,506.3153 162.2747,459.2623 C213.5257,495.4223 295.4187,522.5043 354.0177,489.9883 C408.9257,456.9223 428.6997,387.9473 424.7987,327.0683 C428.8057,325.2243 430.4227,321.2043 430.5277,317.0133 L430.5517,317.0133 C430.5507,316.9623 430.5477,316.9113 430.5477,316.8603 L430.5477,316.8603 Z" id="ðŸŽ¨-Background" fill="#FFFFFF"/>
        <path d="M84.0409,37.6018 C95.3719,30.2618 109.9149,27.5298 123.2649,28.0648 C130.3849,28.3498 137.0319,30.1248 143.5959,32.7908 C149.6799,35.2628 155.0439,38.8138 160.9679,41.5198 C161.3279,41.6838 161.0559,42.1888 160.7159,42.1198 C153.700739,40.7039935 145.46435,41.5592589 138.351367,42.5729781 L137.6439,42.6748 C130.6529,43.6898 123.5389,44.2148 116.6479,45.8258 C103.9539,48.7928 92.1469,55.2578 85.1799,66.5028 C76.0829,81.1888 73.7509,100.1988 74.7239,117.1428 C75.2159,125.7158 76.9059,134.1498 79.5379,142.3228 C81.1179,147.2278 84.7889,152.1628 86.5039,157.3098 C87.8089,154.8738 89.1559,152.4618 90.5509,150.0788 C84.1959,147.0838 82.4139,138.7598 82.0849,131.2478 C81.1059,130.3018 80.4759,128.9328 80.4549,127.6758 C80.3989,124.2968 81.1939,121.2378 82.5459,118.4388 C83.3179,110.5108 84.9539,102.6068 87.7699,95.1778 C98.8229,66.0108 127.9819,39.7228 161.0489,42.3198 C170.1369,43.0338 178.9799,46.8928 183.6789,55.0968 C187.4539,61.6848 187.4789,69.6318 184.8749,76.6388 C184.1029,78.7188 183.0989,80.5968 181.9189,82.3098 C185.4919,81.4038 189.0709,80.5348 192.6439,79.6738 C205.0399,76.6858 217.4989,74.3448 230.1909,73.0428 C247.4759,71.2708 265.1169,73.9518 280.9559,80.8508 C285.2999,81.9678 289.6229,83.1678 293.9199,84.4498 C312.8289,90.0878 332.2289,97.4518 347.5019,110.3208 C354.5289,116.2418 359.5579,123.1298 363.6399,130.6938 C378.9289,144.3248 393.5489,159.7768 403.8689,177.4528 C425.1319,213.8718 430.2099,258.9208 431.0839,300.3238 C431.8869,338.3578 428.5459,376.7818 421.4179,414.1528 C418.1819,431.1128 412.9509,446.8748 402.3689,460.7838 C390.5849,476.2728 374.8679,488.4758 357.2319,496.6638 C321.3269,513.3338 276.8879,515.7588 241.9879,495.1058 C231.4909,488.8948 240.9429,472.7038 251.5459,478.7548 C286.0009,498.4158 329.9729,493.9248 363.1249,473.0808 C377.1299,464.2758 389.1989,452.2348 396.8659,437.4898 C402.464943,426.719865 404.867443,414.369988 406.948057,402.345231 L408.0539,395.9128 C414.4769,358.9348 417.3809,321.0058 415.8359,283.4928 C414.2939,246.0728 408.3589,205.5428 387.1629,173.7298 C375.9829,156.9498 361.7259,142.2498 346.7509,128.8458 C345.6989,127.9038 344.6449,126.9658 343.5899,126.0308 C337.7369,122.5138 331.6709,119.4428 325.7019,116.8218 L324.431965,116.272698 C320.998413,114.809167 316.196823,112.918608 311.7419,111.4068 C305.3739,109.2458 298.9029,107.3258 292.4049,105.5958 C288.9989,104.6888 285.5769,103.8568 282.1459,103.0618 C283.3419,104.1588 284.5309,105.2658 285.6989,106.4008 C291.2329,111.7778 295.6229,118.1678 300.8699,123.8058 C301.4629,124.4418 300.7149,125.3698 299.9609,124.9828 C291.9819,120.8888 283.1339,118.2388 274.8029,114.9218 C266.9259,111.7858 259.2709,108.1758 251.5339,104.7158 C249.5959,103.8478 247.6639,102.9208 245.7369,102.0038 C238.1279,102.0818 230.5189,102.2608 222.9269,102.6938 C232.1049,109.2268 240.4869,116.9478 247.4299,125.4148 C248.0029,126.1118 247.4819,127.2288 246.5179,126.9818 C231.9838,123.2603 218.16169,117.79082 204.347356,112.059062 L197.7379,109.3078 L197.7379,109.3078 C192.8799,109.0618 188.0149,108.9468 183.1489,109.0188 L180.790619,109.058046 C175.682336,109.155529 170.583967,109.357867 165.5209,110.1318 C164.3169,110.3148 163.1369,110.4888 161.9649,110.6488 C154.8399,113.5568 147.9839,117.0628 141.8149,121.6838 L143.4219,121.5888 L143.4219,121.5888 C153.1759,121.0338 163.1209,121.8738 172.5669,124.3918 C190.9209,129.2868 206.5819,141.0738 217.9779,156.1028 C218.3189,156.5528 217.6559,157.1788 217.2089,156.8728 C202.8719,147.0578 186.2429,142.1138 169.2059,139.4288 C160.9709,138.1298 152.4899,137.6828 144.1759,138.3298 C137.2919,138.8648 130.1709,141.2898 123.3219,140.1128 C121.4549,142.4378 119.6619,144.8328 117.9359,147.2808 C118.8429,147.2228 119.7539,147.1698 120.6709,147.1268 C130.5069,146.6648 140.5239,147.2958 150.1279,149.5598 C169.3109,154.0848 185.3409,165.6008 200.0049,178.2438 C200.2949,178.4938 199.9209,178.9398 199.6069,178.7598 C183.7039,169.5818 165.2199,166.8388 147.2049,165.1828 C138.1329,164.3488 128.9589,163.9708 119.8669,164.6948 C115.7019,165.0258 111.5829,165.7128 107.4299,166.1398 C107.0939,166.1748 106.7449,166.1838 106.3989,166.1998 C103.3889,171.8758 100.6599,177.6538 98.1979,183.4148 C105.7119,181.3988 113.8189,180.3408 121.5769,180.8628 C137.3349,181.9238 152.9649,189.1488 165.5439,198.3898 C165.9379,198.6788 165.7179,199.4488 165.1829,199.2468 C151.4909,194.0738 137.9179,194.0318 123.6289,196.0278 C116.9299,196.9638 110.2989,198.2338 103.8269,200.2258 C100.5729,201.2278 97.3559,202.3208 94.2679,203.7598 C92.8659,204.4118 91.5009,205.1718 90.1209,205.8888 C89.0169,209.6368 88.0299,213.4198 87.1399,217.2258 C110.4959,218.5428 132.4989,229.5668 151.6479,242.2188 C152.1109,242.5248 151.8219,243.3768 151.2499,243.1608 C139.8189,238.8478 127.3839,236.8538 115.2589,235.6928 C104.6569,234.6778 94.2529,235.2298 83.7119,235.5258 C83.1469,239.5308 82.6899,243.5478 82.3589,247.5728 C84.0539,248.0478 85.7169,248.5598 87.3159,249.0408 C92.5749,250.6208 97.8239,252.7478 102.7309,255.2138 C112.6989,260.2228 120.7759,266.9938 128.9029,274.5208 C129.3269,274.9138 128.8849,275.7718 128.3099,275.5388 C118.8769,271.7258 108.5699,269.2838 98.6399,267.1228 C93.5009,266.0048 88.3599,264.9728 83.1849,264.0258 C82.6839,263.9338 82.1749,263.8568 81.6669,263.7808 C81.6179588,272.957271 82.1368239,282.136399 83.2810209,291.240649 L83.5029,292.9468 C84.1229,297.5548 83.6159,302.0118 80.5649,305.1948 C84.7849,302.3898 89.6129,300.4468 94.9639,299.7018 C109.0549,297.7408 122.1029,303.3708 130.9699,314.2608 C131.3849,314.7698 130.7449,315.4378 130.2409,314.9898 C121.6359,307.3328 108.3749,305.9778 97.6879,309.5828 C87.7939,312.9198 80.3559,320.8868 77.3749,330.8558 C74.2069,341.4498 75.6579,353.1458 81.4349,362.5898 C84.3129,367.2948 88.4699,371.5008 93.6719,373.5698 C94.3139,373.8258 94.9679,374.0388 95.6289,374.2238 C98.7689,373.0758 102.1479,373.5958 105.3769,375.0508 L105.7959,375.2478 L105.7959,375.2478 C107.8559,375.2358 109.9069,375.1728 111.8999,375.1908 C115.7789,375.2278 117.6439,379.3458 116.0159,382.4108 C116.9389,384.1018 117.6149,386.0018 118.4259,387.6588 C119.8909,390.6488 121.4249,393.6198 122.9669,396.5718 C125.1479,399.0738 127.2309,401.6638 128.6449,404.6838 C129.2249,405.9228 129.7729,407.2648 130.1929,408.6108 C131.4049,410.4338 132.6369,412.2468 133.8989,414.0508 C137.9789,419.8788 142.2759,425.3998 147.0409,430.6908 C149.9049,433.8708 153.1999,436.7098 156.2319,439.7578 C157.1509,439.8798 158.0519,440.5058 158.3359,441.4058 L158.5839,442.2668 L158.5839,442.2668 C159.5609,443.3678 160.4959,444.5018 161.3379,445.7098 C163.2059,448.3888 162.6939,451.1068 161.0529,453.0658 C163.6519,469.2818 161.8819,486.5338 158.4049,502.2578 C156.1569,512.4178 153.5319,522.5688 150.0089,532.3698 C148.2179,537.3518 146.0489,542.1378 143.0519,546.5138 C141.4089,548.9118 139.2689,551.7048 136.8689,553.9868 C136.5039,556.6428 136.0299,559.2768 135.3509,561.8588 C127.2999,592.4558 94.3439,601.7708 66.7499,605.6788 C61.4239,606.4318 56.1529,605.1458 53.2519,600.1848 C52.5819,599.0398 52.1319,597.8048 51.8899,596.5358 C50.6879,596.2158 49.5319,595.6528 48.4949,594.8438 C48.3219,596.7608 48.1219,598.6848 47.8689,600.6298 C47.2379,605.4918 40.6749,606.9538 39.0299,601.8258 C32.0879,580.1838 28.3169,557.3648 23.5599,535.1258 C18.8129,512.9338 13.5119,490.8598 8.6069,468.7018 L2.3962785,440.737068 C-12.7579368,372.260718 -26.95202,302.90908 -23.4681,232.4818 C-21.5661,194.0378 -14.5121,155.6938 0.5859,120.1678 C13.1629,90.5728 34.3889,57.3238 68.6779,51.2728 C68.9139,51.2318 69.1239,51.2558 69.3199,51.3058 C73.3919,46.0108 78.2569,41.3478 84.0409,37.6018 Z M104.7309,409.8268 C107.4959,418.9998 109.4699,428.4038 110.5439,438.0008 C112.3329,453.9958 111.4459,470.3808 110.6689,486.4188 C109.9539,501.1528 108.2569,516.0148 105.3679,530.4828 C102.5949,544.3748 98.2489,557.9948 91.7879,570.6318 C90.7429,572.6758 89.6199,574.6658 88.4399,576.6178 C92.0129,575.4268 95.2389,574.0408 98.5989,572.1188 C102.8279,569.6988 106.6979,566.5788 108.8149,563.2878 C112.2129,558.0088 113.3529,552.1438 113.8499,545.8518 C115.1279,529.6698 115.7189,513.4398 116.5339,497.2308 L116.714708,493.70128 C118.032956,468.375386 119.760856,442.4026 117.1799,417.0498 C113.5489,416.0958 110.2729,414.2228 107.2499,411.8728 C106.4159,411.2248 105.5739,410.5388 104.7309,409.8268 Z M77.1159,379.1588 C77.8789,386.8628 78.6089,394.5678 79.2699,402.2788 C81.6149,429.6498 83.0639,457.1728 81.7309,484.6388 C81.0369,498.9418 79.6429,513.2848 77.2329,527.4058 C76.1466,533.7706 74.8335,540.13378 73.3665,546.42973 L72.8719,548.5258 C71.3829,554.7618 70.4339,562.5558 65.6659,567.0908 L65.7019,568.0318 L65.7019,568.0318 C69.0489,562.9518 72.1449,557.2408 74.3619,551.9238 C84.2409,528.2348 86.0459,502.4468 87.8309,477.1878 C88.9309,461.6208 89.7459,446.0338 91.0189,430.4798 L91.6371661,422.994598 C92.3464802,414.283602 92.9571222,405.637133 92.8739,396.9338 C90.9709,394.0968 89.4249,391.1138 88.4649,388.0518 C88.3109,387.5588 88.2049,387.0608 88.1309,386.5628 C84.1069,384.6558 80.3179,382.0528 77.1159,379.1588 Z M131.1909,433.3618 C133.1759,439.9668 134.7959,446.6558 135.9499,453.3728 C137.7879,464.0648 138.8909,474.8238 139.3759,485.6188 L140.389772,481.804822 C142.942914,472.266177 145.656253,462.713565 149.0189,453.4568 C143.6999,449.7328 139.2559,443.8848 135.3899,438.9968 C133.9449,437.1708 132.5439,435.2858 131.1909,433.3618 Z M55.0209,139.6228 C52.9769,146.2208 51.1899,152.8938 49.3439,159.5458 C45.0059,175.1718 42.1899,191.2258 40.2359,207.3098 C32.4389,271.5278 38.9329,336.0058 47.4259,399.8038 C50.9449,426.2378 54.7709,452.6328 58.0549,479.0978 C58.1419,476.5008 58.2149,473.9038 58.2619,471.3098 C59.2599,415.1358 49.8049,359.7478 46.0189,303.8638 L45.7916035,300.458482 C44.0757559,274.329152 43.0259417,247.711883 46.1319,221.6778 C47.7299769,208.2778 50.5456944,195.164412 54.2927955,182.215845 L56.5234714,174.610281 C58.0310224,169.496331 59.6334714,164.246229 61.5349,159.1548 C61.2809,158.6668 61.0389,158.1748 60.8139,157.6818 C58.1829,151.8978 56.3519,145.8178 55.0209,139.6228 Z M61.6079,63.9238 C41.9819,89.2268 25.5129,116.1058 15.5489,147.0218 C-7.2551,217.7778 -2.1641,293.4388 11.0509,365.5608 C17.2779,399.5428 25.3079,433.1288 32.6349,466.8748 C24.7919,406.2758 14.6779,345.8098 13.0679,284.6278 C12.1889,251.2358 13.9159,217.6878 20.0669,184.8118 L20.4309556,182.878754 C23.0672753,168.984611 26.3328333,154.264044 33.0179,141.7778 C36.6479,134.9978 40.6549,128.6708 45.4069,122.6148 C47.4109,120.0608 49.6609,118.0128 52.0479,116.1398 C51.3479,98.6968 53.9859,79.7818 61.6079,63.9238 Z M93.6279,333.5211 C103.3919,333.9051 113.1469,336.6271 120.8359,342.9731 C126.8509,347.9361 118.2729,356.3241 112.3069,351.5011 C105.8189,346.2571 99.9999,340.3001 93.0839,335.5301 C92.2599,334.9611 92.4859,333.4761 93.6279,333.5211 Z M77.4299,307.5058 C75.2589,308.6248 73.1019,308.8508 70.6429,308.2468 C70.5529,308.2248 70.4663444,308.1998 70.3814926,308.173356 L69.8789,308.0098 C70.0939,310.3378 70.3199,312.6658 70.5439,314.9938 C72.5279,312.1998 74.8289,309.6698 77.4299,307.5058 Z M67.7109,167.0148 C66.8469,174.2348 66.2839,181.4898 65.9839,188.7558 C65.692525,195.83455 65.5711187,202.934738 65.5379508,210.037605 L65.5289,213.0818 L65.5419,213.0238 C68.8989,198.7018 73.6469,184.6068 79.7109,171.1188 C78.6669,171.2928 77.6069,171.2648 76.5629,171.1388 C74.1749,170.8498 71.8849,169.7908 69.8359,168.5518 C69.0889,168.0998 68.3879,167.5728 67.7109,167.0148 Z M167.3059,83.3298 C163.1329,85.2158 159.1029,87.3838 154.9149,89.2268 C146.6099,92.8828 138.4839,97.1328 130.7979,101.9578 C123.0199,106.8408 115.5269,111.9818 108.6359,118.0718 C107.8289,118.7858 107.0289,119.5078 106.2299,120.2288 C106.0689,121.8038 105.9519,123.3848 105.8989,124.9788 C105.8699,125.8358 105.8689,126.7318 105.8799,127.6528 C118.8829,111.5458 134.6039,98.8378 154.5479,90.8438 C158.0049,89.4578 161.5189,88.2238 165.0649,87.0818 C165.9089,85.9098 166.6659,84.6658 167.3059,83.3298 Z M166.9349,67.8788 C164.6159,64.8008 157.9499,65.0518 153.7469,65.7378 C146.9509,66.8478 140.9649,69.2238 135.1399,72.6638 C128.2549,76.7278 122.3159,82.2338 117.6689,88.7098 C119.9559,87.4198 122.2859,86.2028 124.6649,85.0728 L126.294824,84.3030687 C135.305649,80.079111 145.066214,76.0634286 154.9219,74.7538 C159.4819,74.1478 164.3859,73.2708 168.9929,73.7648 C168.7659,71.5258 168.0999,69.4258 166.9349,67.8788 Z" id="ðŸ–-Ink" fill="#000000"/>
    </g>
</g><g transform="translate(320, 250)"><g>
    <!-- Generator: Sketch 62 (91390) - https://sketch.com -->
    <title>face/Smile Big</title>
    <desc>Created with Sketch.</desc>
    <g id="face/Smile-Big" stroke="none" stroke-width="1" fill="none" fill-rule="evenodd">
        <path d="M93.3467129,186.476493 C110.488788,184.396013 127.104995,189.644043 143.862898,192.289481 C152.710839,193.685435 161.569756,194.727668 170.523469,195.115267 C172.32459,195.193982 174.126708,195.239817 175.928826,195.276684 C176.096465,193.690417 176.984552,192.233683 178.908408,191.360838 C182.851913,189.573299 186.008114,188.767213 190.337788,188.93959 C194.301251,189.096024 198.278683,189.503551 202.181276,190.217969 C209.268011,191.517272 216.386677,194.465615 221.570511,199.588099 C233.567668,211.441255 231.741602,230.480436 222.47157,243.39077 C203.319435,270.068282 168.364112,271.306425 138.426282,270.958393 L135.66356,270.922255 C108.404278,270.532663 69.4042864,274.596972 57.019963,243.583075 C52.465773,232.178299 53.0984103,218.959081 58.6743992,208.020619 C65.3250733,194.973778 79.3249167,188.178341 93.3467129,186.476493 Z M178.495298,230.894938 L178.250824,230.904902 C165.682896,231.389151 153.116964,231.72992 140.542051,231.952117 C140.918241,235.181444 141.302413,238.411767 141.741468,241.63412 C142.085726,244.169954 142.454931,246.702799 142.839103,249.232654 C143.001753,250.303783 143.598468,251.966772 143.429831,253.027936 L143.368962,253.44742 L143.368962,253.44742 C144.014571,253.739364 144.600309,254.209664 145.03637,254.892197 C145.188043,255.128344 145.297807,255.366483 145.407571,255.603626 C155.170541,255.680348 165.676909,255.491033 175.629471,253.716447 L175.649428,253.500229 L175.649428,253.500229 C175.830039,252.228824 176.358899,251.372918 177.061386,250.786039 C177.76088,246.731694 177.697017,242.411311 177.967435,238.38885 C178.136071,235.889883 178.318678,233.392909 178.495298,230.894938 Z M130.93774,232.123497 C121.87903,232.277607 112.816379,232.396289 103.759597,232.285698 L99.6481393,232.22214 L99.6481393,232.22214 C100.516269,236.880303 101.461234,241.522523 102.246542,246.211574 C103.065777,251.098909 98.7640436,254.205679 95.0410632,254.080133 C95.4591626,254.148884 95.8762641,254.219628 96.2943635,254.278416 C107.926308,255.92347 120.004291,255.487047 131.808863,255.474094 C131.173731,251.767293 131.431054,247.584788 131.336033,244.49078 L131.317921,244.011527 C131.13731,240.046857 131.010583,236.085177 130.93774,232.123497 Z M69.4062821,231.268587 C69.720605,233.690832 70.3322874,236.061264 71.2473164,238.268286 C75.1139873,247.592582 83.9788918,251.943854 93.3586871,253.776231 C91.7311928,253.214262 90.4389764,251.864142 90.1126792,249.551502 C89.299431,243.801286 89.0070608,237.955417 88.9851081,232.116522 C82.448189,232.055742 75.8673645,231.916246 69.4062821,231.268587 Z M212.584867,229.277783 C207.930891,230.375814 202.522541,229.872633 197.956377,230.079884 C193.678592,230.274182 189.398811,230.443569 185.121025,230.616943 C185.322591,233.537386 185.519168,236.456834 185.732708,239.375285 C186.008114,243.147649 186.034059,247.134239 186.756502,250.890661 C195.365957,247.952282 203.08034,243.240314 208.867873,235.705549 C210.309767,233.828335 211.600986,231.625298 212.584867,229.277783 Z M91.3799494,201.775194 C83.6326376,203.609563 76.3004317,207.484557 72.3599198,214.573932 C70.020958,218.780726 68.9921741,223.766703 69.1897485,228.679944 C75.7376439,227.917699 82.3982965,227.628744 89.0270178,227.389608 C89.0489705,226.195923 89.0771321,225.003566 89.1129808,223.813719 L89.2151053,220.764114 C89.3957906,214.947692 89.4865796,207.643706 91.3799494,201.775194 Z M131.479572,202.48463 L128.069104,202.101567 C118.596243,201.022247 109.128468,199.889225 99.6551242,200.538664 C98.2840775,200.633321 96.892076,200.782781 95.4970809,200.987043 C97.1714741,207.029203 97.0307772,214.125552 97.7302705,220.106932 C98.000688,222.419573 98.3419529,224.713282 98.7201382,226.998024 L100.363598,226.921301 L100.363598,226.921301 C110.528702,226.370293 120.703784,226.031517 130.876871,225.627976 C130.876122,223.71788 130.8866,221.806663 130.917143,219.894746 L130.954703,217.982611 C131.070454,213.099262 130.755133,207.598146 131.479572,202.48463 Z M179.049105,201.709432 C169.127476,203.310644 158.873564,203.651412 149.127558,203.663369 C145.234942,203.668351 141.344323,203.429215 137.455699,203.084462 C137.709153,205.154977 137.84087,207.249407 138.031459,209.291027 C138.415432,213.416914 138.854327,217.536423 139.331283,221.652107 L139.756743,225.25333 L139.756743,225.25333 C152.260808,224.686379 164.763876,224.073594 177.264948,223.438888 L179.029148,223.344231 L179.029148,223.344231 L179.523638,216.423284 C179.860246,211.808262 180.23056,207.194273 180.753433,202.600212 L180.361278,202.458723 L180.361278,202.458723 C179.900271,202.269408 179.463213,202.008351 179.049105,201.709432 Z M183.357823,203.427223 C183.904645,209.952636 184.206994,216.504952 184.609128,223.041325 L192.850339,222.601065 C194.223751,222.526187 195.597126,222.449797 196.970501,222.370749 C202.310997,222.062862 209.173215,220.445708 214.452843,221.954255 C214.855974,217.154604 213.48393,212.478506 209.152261,209.254161 C201.547641,203.590632 191.864499,205.607342 183.357823,203.427223 Z M155.2009,145.0937 C167.4729,138.0657 198.2639,130.8827 200.2139,152.9677 C201.11069,163.130663 193.55511,171.551452 184.732334,175.308984 L184.4009,175.4477 C176.1259,178.8497 161.4589,182.6917 154.2979,175.3147 C148.3379,169.1747 156.2429,158.1657 163.6489,163.1957 C167.454921,165.779721 175.466095,163.875752 179.713009,162.646215 L179.9789,162.5687 C184.5619,161.2217 190.6719,156.9107 188.7769,151.2677 C187.0999,146.2757 179.9639,145.3637 175.4949,145.2017 C168.8239,144.9627 162.3319,146.5117 155.7219,147.0157 C154.6749,147.0957 154.3519,145.5797 155.2009,145.0937 Z M206.0359,109.581 C222.6919,108.801 233.0529,126.987 229.2229,141.888 C228.5609,144.459 225.6849,146.983 222.9089,146.694 L222.209444,146.629632 C221.8541,146.59548 221.4971,146.5506 221.1689,146.46 C218.5329,145.73 216.1699,142.988 216.3619,140.146 L216.412906,139.317884 C216.801522,132.278753 216.038672,124.168709 207.6729,122.464 C200.5779,121.018 196.6169,127.847 196.5329,134.133 C196.5169,135.249 195.2629,136.028 194.2759,135.428 C189.1469,132.307 188.2589,126.098 190.2179,120.751 C192.7009,113.976 198.9149,109.914 206.0359,109.581 Z M82.4329,113.4814 C94.5539,109.4374 107.6309,115.8984 113.4999,126.6144 C115.5589,127.2104 117.6149,128.7974 117.3289,131.2274 C116.9159,134.7234 116.2939,136.9274 113.8699,139.5784 C110.078488,143.725503 102.977604,141.605092 101.401739,136.499971 L101.3349,136.2694 C99.5449,129.6704 92.2809,125.3164 85.6639,127.6264 C77.9339,130.3244 78.1579,138.4884 72.7359,143.2444 C72.0989,143.8034 71.3349,143.8924 70.5709,143.5234 C64.8119,140.7404 65.8469,132.3644 67.8999,127.5704 C70.5929,121.2794 75.8269,115.6844 82.4329,113.4814 Z M65.9254,76.6741 C75.7474,66.6521 101.3594,56.9541 108.0784,75.4611 C109.3584,78.9861 106.6334,83.7391 102.9634,84.4701 C96.9534,85.6661 91.6214,83.0571 85.6514,83.5251 C80.8184,83.9061 75.7774,85.5211 71.9134,88.5151 C61.2114,96.8071 58.8574,110.8321 51.4004,121.3861 C51.0374,121.9001 50.3324,121.6841 50.2654,121.0781 C48.5674,105.7131 55.1674,87.6501 65.9254,76.6741 Z M194.0206,66.8082 C200.5386,64.5062 207.9196,64.7032 214.4716,66.7452 C221.0716,68.8032 227.1306,72.7112 231.7986,77.8172 C233.9166,80.1352 235.8766,82.6932 237.4486,85.4162 C238.2836,86.8592 239.1616,89.8402 240.1106,91.6152 C245.245093,94.5796058 247.439689,101.334701 242.842821,106.140464 L242.6356,106.3512 L242.0206,106.9612 C239.5496,109.4072 235.8236,110.4672 232.4506,109.4902 C224.9026,107.3062 223.9856,101.3612 221.3726,95.0512 C219.6466,90.8832 216.6896,87.1952 213.1046,84.4862 C204.6316,78.0862 190.7386,76.0472 180.5376,79.0632 C179.9946,79.2242 179.3566,78.5322 179.7436,78.0302 C181.6766,75.5262 182.7906,73.4712 185.3786,71.4512 C188.0056,69.4012 190.8726,67.9202 194.0206,66.8082 Z" id="ðŸ–-Ink" fill="#000000"/>
    </g>
</g></g>
          </g>
        </g>
      </svg>
